<svg id="Layer_2" data-name="Layer 2" xmlns="http://www.w3.org/2000/svg" viewBox="0 0 1000 1000"><defs><style>.cls-1,.cls-3,.cls-8{fill:none;stroke-width:5.47px;}.cls-1{stroke:#ccdde2;}.cls-1,.cls-3{stroke-miterlimit:10;}.cls-2{fill:#353642;}.cls-3,.cls-8{stroke:#000;}.cls-4{opacity:0.77;}.cls-5,.cls-7{fill:#fff;}.cls-6{fill:#3fbdf1;}.cls-7{opacity:0.54;}.cls-8{stroke-linecap:square;stroke-linejoin:round;}.cls-9{fill:#d7e8f0;}</style></defs><path class="cls-1" d="M230,424.18S176.17,264.9,363.93,284.34s98.05-51.06,169-94.81,280,92.36,192.54,223.64,139.77,11.19,187.17,208.61c29.25,121.83-43.32,211.5-103.19,262.33"/><path class="cls-2" d="M827.76,731.9c-14.11-81.71-64.07-154.83-145.24-181A438.11,438.11,0,0,0,619,535.65l0,.11a45.11,45.11,0,0,1-7.77,18.82c-8.46,11.59-20.12,21.11-33.62,26.07-13.78,5.1-30.85,5.76-43.64-2.26-7.7-4.82-15.17-13.31-16.52-22.47-1.54-10.32,3.72-20.09,11.12-26.91-62.72.51-121.72,10.83-169,22.58a114.43,114.43,0,0,0,6.78,20,78.12,78.12,0,0,0,16.74,24,152.21,152.21,0,0,0,22.9-29,33,33,0,0,1,22.61,28.51v.33c2.48,23.41-20.06,41-39,51.82-21.88,12.58-46.27,22-70.23,29.83-9.88,3.24-22.72,6-33.15,2.62h0a24.64,24.64,0,0,1-3.28-1.31c-10.4-5.1-17.36-15.79-22.79-25.56-15.47-27.75-25.53-58-32.35-89.05-47.33,6.05-52.75-26-55.56-33.86L131.75,643.11A55,55,0,0,0,185,712H352.62L428.76,907.3l21.58,55.43H573.6c-10,0-15.47-2.44-19.44-6.42a21.93,21.93,0,0,1-6.42-15.46c0-12,9.85-21.84,25.86-21.84h1.13c-1.21,0-2.37-.11-3.58-.22a19.94,19.94,0,0,0,2.23-.37,22.55,22.55,0,0,1-2.37-.18,31,31,0,0,0,27.31-28.92,10.57,10.57,0,0,0,0-1.13v-.58a31,31,0,0,0-27.21-30.05c.84-.07,1.64-.14,2.45-.14-.73-.18-1.54-.29-2.3-.4,1.2-.11,2.41-.19,3.57-.19l90.18.48,16.59.07h19.69c.91,0,1.83,0,2.7.11l29.25.15,19.54.11a30.89,30.89,0,0,1,30.63,31,30.15,30.15,0,0,1-3.13,13.31,37.46,37.46,0,0,0,22.06-11c14.07-14.37,20.13-35.88,24.32-55C834.07,802,833.63,766.11,827.76,731.9Zm-227.84,2.3C582.93,760.35,554,758,554,758s-2.4,2.34-8-7.62-21.55-16.77-21.55-16.77c-1.27,10-3.9,25.2-30,5.5s-18.23-48.42-16-63.59,11.12-20.2,11.12-20.2l10.5-5.54s-30.37-7.81-31.83-8.1-28.51-22.94-1.06-28.92,70.24,17.8,78.51,22.5,56.6,45.58,56.6,45.58S617,708.09,599.92,734.2Z"/><path class="cls-2" d="M227.76,563.8s22.89-2.78,31.46-19.12l-7.47,41.91s91.06-31,107.76-35c0,0,5.38,34.69,26.8,44l22.1-28.1s27.71,7,20.13,44.76-112.42,69.32-130.2,68.59-36.92-11.67-56.52-70.46Z"/><path class="cls-3" d="M265.05,470.44c5.8,9.44,11.63,18.86,17.65,28.16,3.71,5.73,10.47,13.9,3.28,19.89a14.64,14.64,0,0,1-8.11,3c-4.62.41-9.47-.7-12.28-4.67l-14-23.2a21.5,21.5,0,0,0-28-8.14h0"/><path class="cls-3" d="M318,501c3.66,8.7,1.18,14.31-3.1,17.13-7,4.59-16.37,2.39-21.33-4.31l-28.47-43.33"/><path class="cls-3" d="M289.15,457.84c10.36,12.6,23.43,36,30.66,45.77s18.41,3.88,18.41,3.88c9.08-4.89,7.54-13,3.57-22.85-9.78-24.18-23.74-40.26-39.31-50.8-48.25-32.64-97.75-8.56-112.48,47.78L131.75,643.11A55,55,0,0,0,185,712H352.62l97.75,250.74"/><path class="cls-3" d="M349,473.55c12-4.16,11.45-23.3-5.58-29.76-18.81-7.14-52.21-17.24-60.6-19.76a.34.34,0,0,0-.18-.07c-.59-.18-1-.33-1.32-.4l-.47-.15"/><path class="cls-3" d="M526.3,664.92c-10.5-12.62-39.24-19.77-58-23.23a14.8,14.8,0,0,1-12-13.13,15.08,15.08,0,0,1,.73-6.38,14.91,14.91,0,0,1,15.57-9.84c32,3.24,65,13.31,89.41,35,0,0,118.33,90.3,132.46,99.09h0c5.83,3.54,11.27-.64,7.32-6.2l-1.24-2.12A190.72,190.72,0,0,0,676,704.87"/><path class="cls-3" d="M528.49,529c-148.82,1.24-276.74,57.58-276.74,57.58L264.52,515"/><path class="cls-2" d="M759.63,918.57s-16.21-3.67-20.52,9.31-8.81,33.63,22.18,34.85,12.79-4.87,11-14.9S759.63,918.57,759.63,918.57Z"/><path class="cls-3" d="M512,681.39s-17.49-13.26-33.24.18a9.56,9.56,0,0,0-1.72,2"/><g class="cls-4"><path class="cls-5" d="M293.51,513.77c5,6.71,14.36,8.9,21.33,4.3,4.23-2.8,6.71-8.38,3.14-17,.65.95,1.24,1.79,1.82,2.56,7.22,9.81,18.41,3.9,18.41,3.9,9.08-4.89,7.55-13,3.58-22.86a125.47,125.47,0,0,0-15.17-27.5c4.05-3.79,8.86-7.62,13.93-5.94,5.47,1.82,7,8.68,7.62,14.4.29,2.66.58,5.29.87,7.95l4.38,39.16c1.46,13,2.92,26.19,6.09,38.88a114.43,114.43,0,0,0,6.78,20,78.12,78.12,0,0,0,16.74,24,152.21,152.21,0,0,0,22.9-29,33,33,0,0,1,22.61,28.51v.33c2.48,23.41-20.06,41-39,51.82-21.88,12.58-46.27,22-70.23,29.83-9.88,3.24-22.72,6-33.15,2.62h0a24.64,24.64,0,0,1-3.28-1.31c-10.4-5.1-17.36-15.79-22.79-25.56-26-46.75-36.8-100.43-42.49-153.59,11.38-1.57,22.72-3.32,33.92-5.73,0,0,0,.08.07.11l12.91,21.41,1.06,1.78c2.8,4,7.65,5.07,12.28,4.67a14.37,14.37,0,0,0,8.1-3c7.18-6,.44-14.14-3.28-19.87"/><path class="cls-6" d="M293.51,513.77c5,6.71,14.36,8.9,21.33,4.3,4.23-2.8,6.71-8.38,3.14-17,.65.95,1.24,1.79,1.82,2.56,7.22,9.81,18.41,3.9,18.41,3.9,9.08-4.89,7.55-13,3.58-22.86a125.47,125.47,0,0,0-15.17-27.5c4.05-3.79,8.86-7.62,13.93-5.94,5.47,1.82,7,8.68,7.62,14.4.29,2.66.58,5.29.87,7.95l4.38,39.16c1.46,13,2.92,26.19,6.09,38.88a114.43,114.43,0,0,0,6.78,20,78.12,78.12,0,0,0,16.74,24,152.21,152.21,0,0,0,22.9-29,33,33,0,0,1,22.61,28.51v.33c2.48,23.41-20.06,41-39,51.82-21.88,12.58-46.27,22-70.23,29.83-9.88,3.24-22.72,6-33.15,2.62h0a24.64,24.64,0,0,1-3.28-1.31c-10.4-5.1-17.36-15.79-22.79-25.56-26-46.75-36.8-100.43-42.49-153.59,11.38-1.57,22.72-3.32,33.92-5.73,0,0,0,.08.07.11l12.91,21.41,1.06,1.78c2.8,4,7.65,5.07,12.28,4.67a14.37,14.37,0,0,0,8.1-3c7.18-6,.44-14.14-3.28-19.87"/><path class="cls-6" d="M296.58,516.94c4.43,6,12,5.24,18.26,1.13,3.78-2.5,6.88-1.77,3.69-9.48.59.84.67-2,1.19-1.37,6.45,8.76.08-3.62.08-3.62,9,11.37,28.59.66,25-8.13C341,486,337,472,331.93,465c4-3.78,3.23-3.22,8.32-.21a10.49,10.49,0,0,1,4.79,8.05c.41,3.81.82,7.46,1.23,11.18l3.9,35c1.31,11.63,2.61,23.38,5.44,34.7a101.63,101.63,0,0,0,6.06,17.84c3.58,7.91,15.08,21.08,21.36,27.11,7.81-7.75,17.17-22,22.9-31.47,11,3.38,10.52,13.9,11.3,25.39v.3c2.22,20.89-17.9,36.58-34.76,46.25-19.54,11.23-41.31,19.63-62.7,26.63-8.82,2.9-20.28,5.4-29.59,2.34h0a21.3,21.3,0,0,1-2.93-1.17c-9.28-4.56-15.5-14.09-20.35-22.82-21.23-38.13-31.08-81.42-36.5-124.82a12.62,12.62,0,0,1,10.56-14c6.09-1,12.16-2,18.19-3.34l.17.08,11.52,19.11h0c2.51,3.55,2.92.77,7.05.41,2.61-.23,7.67-.74,9.69-2.43,6.41-5.34,2.79-7.55-.53-12.66"/></g><path class="cls-3" d="M509.89,700.69s-33.21-10.92-33.71,7.44"/><path class="cls-7" d="M212.62,887.72,147.49,720.86a21.9,21.9,0,0,1,21.25-27.21h258.7a25.86,25.86,0,0,1,25.15,19.82l71.3,166.82a21.9,21.9,0,0,1-21.29,27H237.71A25.85,25.85,0,0,1,212.62,887.72Z"/><path class="cls-3" d="M520.7,728.84s5.39,4.94,3.34,12c-1.52,5.23-6.72,8.53-11.87,6.74-16.4-5.67-31.17-15.3-34.77-31.67a79.54,79.54,0,0,1-1.09-25.2c.79-7.79,1.94-16.2,4.56-23.61,4-11.38,16.25-19.31,28.14-13.83"/><path class="cls-6" d="M212.62,887.72,147.49,720.86a21.9,21.9,0,0,1,21.25-27.21h258.7a25.86,25.86,0,0,1,25.15,19.82l71.3,166.82a21.9,21.9,0,0,1-21.29,27H237.71A25.85,25.85,0,0,1,212.62,887.72Z"/><path class="cls-8" d="M212.62,887.72,147.49,720.86a21.9,21.9,0,0,1,21.25-27.21h258.7a25.86,25.86,0,0,1,25.15,19.82l71.3,166.82a21.9,21.9,0,0,1-21.29,27H237.71A25.85,25.85,0,0,1,212.62,887.72Z"/><path class="cls-6" d="M222.15,881,162.06,727a20.21,20.21,0,0,1,19.61-25.1H420.33a23.85,23.85,0,0,1,23.2,18.28l65.79,153.91A20.21,20.21,0,0,1,489.67,899H245.29A23.85,23.85,0,0,1,222.15,881Z"/><line class="cls-3" x1="732.92" y1="856.84" x2="778.68" y2="962.73"/><line class="cls-3" x1="950" y1="962.73" x2="50" y2="962.73"/><path class="cls-3" d="M524.37,484.81c-7.42,7.33-18.5,7.32-24.81.54"/><path class="cls-3" d="M326.62,457.14c4.05-3.79,8.86-7.62,13.93-5.94,5.47,1.82,7,8.68,7.62,14.4q2.63,23.58,5.25,47.11c2.22,20,4.56,40.48,12.87,58.86a78.12,78.12,0,0,0,16.74,24"/><path class="cls-3" d="M428.54,595.45v-.33a33,33,0,0,0-22.61-28.51,152.21,152.21,0,0,1-22.9,29A156.46,156.46,0,0,1,298.39,639c1.54,6.13,4.71,11.71,6.9,17.61s3.28,12.73.62,18.42c-3.36,7.26-13,6.31-19.7,4.7h0c-.07,0-.11,0-.18,0"/><path class="cls-3" d="M251.54,493.53c-11.2,2.41-22.54,4.16-33.92,5.73,5.69,53.16,16.45,106.84,42.49,153.59,5.43,9.77,12.39,20.46,22.79,25.56a24.64,24.64,0,0,0,3.28,1.31h0c10.43,3.43,23.27.62,33.15-2.62,24-7.84,48.35-17.25,70.23-29.83,18.89-10.83,41.43-28.41,39-51.82a34.25,34.25,0,0,0-1.57-7.58"/><path class="cls-6" d="M438.82,387.49v0a34.37,34.37,0,0,0,30.35,26.22,18.11,18.11,0,0,1,3.76-7.86c8-9.43,11.41,8.26,37-4.44,35.46-17.64,48.92-7.52,48.92-7.52,1.18.88,1,9,1.2,10.48,1,8.43,1.9,16.82,2.89,25.24.6,5.14,1.19,10.24,1.75,15.34a24.86,24.86,0,0,1,1.6-2.51c3.23-11.43,9-24.93,21.44-19.12a17.79,17.79,0,0,1,6.4,5.27c8.25,10.84,2,21.31-6.63,29.06a44.76,44.76,0,0,1-7.21,6.45c1.42,2.94,7.22,14.61,7.22,14.65.6,1.18,20.87-21.76,22.38-24.26a58.22,58.22,0,0,0,3.58-19.11c.33-26.83-10.59-58.06-32.32-73.45-5.39-3.81-3.67-7.48-4-12.66a1.39,1.39,0,0,0-2.49-.73c-6.81,7.84-23.67,7.06-23.67,7.06-58.52-14.66-78.19,11.36-90,16a22.15,22.15,0,0,1-15,.25,9,9,0,0,1-6.13,7l.3,2.71A9,9,0,0,1,438.82,387.49Z"/><line class="cls-6" x1="463.26" y1="426.21" x2="463.3" y2="426.21"/><path class="cls-3" d="M469.21,413.75h0a34.37,34.37,0,0,1-30.35-26.22v0a46.29,46.29,0,0,1-1.24-8.18l.46-.05a6.77,6.77,0,0,0,1.84-.4,9,9,0,0,0,6.13-7,8.47,8.47,0,0,0,.11-2.72l-1.5-13.24s10.58,7.87,22.32,3.27,31.45-30.62,90-16c0,0,13.22.78,20-7.06a1.39,1.39,0,0,1,2.49.73c.35,5.19,2.27,8.86,7.67,12.66,21.73,15.4,32.65,46.62,32.31,73.45-.1,11.13-3.8,22.12-9.51,31.55-1.51,2.5-21.78,25.44-22.38,24.26,0,0-5.8-11.71-7.22-14.65l-.34-.65.65-.43a67.32,67.32,0,0,0,6.9-5.37c8.62-7.75,14.88-18.22,6.63-29.06a17.79,17.79,0,0,0-6.4-5.27c-12.48-5.81-18.21,7.69-21.44,19.12a31.07,31.07,0,0,0-1.15,6.7c-.15-1.4-.3-2.75-.45-4.15v0c-.56-5.1-1.15-10.2-1.75-15.34-1-8.42-1.94-16.81-2.89-25.24-.15-1.44,0-9.6-1.2-10.48,0,0-13.47-10.12-48.92,7.52-25.59,12.7-29-5-37,4.44a18.11,18.11,0,0,0-3.76,7.86,20,20,0,0,0-.35,2.81,1.2,1.2,0,0,0,0,.37c-.12,2.07-.16,4.13-.21,6.15-.19,19.49,1.95,39.85,9.6,57.95,9.3,21.94,33.91,43.58,59.5,33.35,8-3.21,15.17-8.38,21.73-13.87"/><ellipse cx="484.88" cy="455.66" rx="4.86" ry="5.88" transform="translate(-119.55 177.45) rotate(-18.5)"/><ellipse cx="522.95" cy="454.44" rx="4.86" ry="5.88" transform="translate(-117.19 189.47) rotate(-18.5)"/><path class="cls-3" d="M510.24,466.66s-12.67,7.19-13.44-.27c-.24-2.3-3.34-24.83-3.34-24.83s-10.24-10.85-25.93-2.83"/><path class="cls-3" d="M507.39,435.25s20.46-10.22,34,4.51"/><path class="cls-3" d="M526.15,516.94,528.5,529c-7.41,6.83-12.65,16.62-11.12,26.93,1.36,9.14,8.84,17.65,16.51,22.44,12.82,8,29.87,7.37,43.67,2.28,13.49-5,25.16-14.49,33.62-26.07a45.16,45.16,0,0,0,7.76-18.81l0-.12"/><line class="cls-3" x1="528.5" y1="529" x2="533.08" y2="550.78"/><path class="cls-3" d="M593.27,473.55l6.92,45.95A19,19,0,0,0,619,535.65h0a438.11,438.11,0,0,1,63.56,15.24c81.17,26.18,131.13,99.3,145.24,181,5.87,34.21,6.31,70.09-1.06,104.11-4.19,19.15-10.25,40.66-24.32,55-18.27,18.7-46.31,11-67.9,2.55C667.49,867.48,611.74,821.1,563.6,768c-25.74-28.4-59-51.16-59-51.16"/><path class="cls-9" d="M244.3,846.53c-7.52-.07-14.07-6.14-15.76-14.59-3.34-16.62-4.22-42.32,20.15-47.93,30.45-7,53.87,26.16,65.35,47.12,3.86,7-.51,16-7.7,16Z"/><ellipse class="cls-9" cx="242.83" cy="752.68" rx="14.06" ry="20.73" transform="translate(-376.26 260.53) rotate(-33.64)"/><path class="cls-5" d="M754.77,919.12c-.47.07-1,.14-1.46.25h-.18L682,919l-106.73-.55c-.41,0-.81,0-1.21,0a23,23,0,0,1-2.37-.18A30.93,30.93,0,0,0,599,889.32a10.57,10.57,0,0,0,0-1.13v-.58a30.94,30.94,0,0,0-24.76-30.19c-.73-.18-1.53-.29-2.3-.4,1.21-.11,2.41-.19,3.58-.19l90.17.48,16.6.07,22.39.11a30.92,30.92,0,0,1,28.11,30.7,28.44,28.44,0,0,1-.33,4.34A30.92,30.92,0,0,1,702,919h54.18C753.06,919,753.93,919,754.77,919.12Z"/><path class="cls-9" d="M610.49,956.31A21.77,21.77,0,0,0,626,962.73H573.62c-10,0-15.46-2.44-19.44-6.42a22,22,0,0,1-6.41-15.46c0-12,9.84-21.84,25.85-21.84H626a21.84,21.84,0,0,0-15.46,37.3Z"/><path class="cls-6" d="M783.48,888.74a30.15,30.15,0,0,1-3.14,13.31h0a29.06,29.06,0,0,1-5.94,8.39,30.81,30.81,0,0,1-14.73,8.13,31.21,31.21,0,0,1-7,.8c.48-.11,1-.18,1.46-.25-.84-.08-1.71-.11,1.42-.11H701.36a30.92,30.92,0,0,0,30.48-26.48,28.44,28.44,0,0,0,.33-4.34,30.92,30.92,0,0,0-28.12-30.7l29.25.15,19.54.11A30.9,30.9,0,0,1,783.48,888.74Z"/><path class="cls-8" d="M783.48,888.73a30.88,30.88,0,0,1-31,30.65l-177.92-.92c-1.19,0-2.38-.09-3.58-.21a30.83,30.83,0,0,0,.32-61.23,33,33,0,0,1,3.58-.18l177.92.92A30.89,30.89,0,0,1,783.48,888.73Z"/><path class="cls-8" d="M732.15,888.18A30.88,30.88,0,0,1,701.33,919H574.74a35.79,35.79,0,0,1-3.58-.2,30.83,30.83,0,0,0,0-61.23c1.19-.11,2.39-.19,3.58-.19H701.33A30.89,30.89,0,0,1,732.15,888.18Z"/><path class="cls-8" d="M547.77,940.86a21.81,21.81,0,0,0,6.4,15.44c4,4,9.43,6.43,19.44,6.43H755.54c-3.13,0-2.28-.06-1.43-.14a21.88,21.88,0,0,1,0-43.46c-.85-.08-1.7-.14,1.43-.14H573.61C557.59,919,547.77,928.84,547.77,940.86Z"/><path class="cls-8" d="M604.07,940.86a21.92,21.92,0,0,0,21.87,21.87H751.57c.84,0,1.69-.06,2.54-.14a21.88,21.88,0,0,1,0-43.46c-.85-.08-1.7-.14-2.54-.14H625.94A21.93,21.93,0,0,0,604.07,940.86Z"/><path class="cls-9" d="M400.42,774H344.3a13.24,13.24,0,0,1-12.1-7.92,5.7,5.7,0,0,1,5.28-8.06h59.66C394.33,762.75,395.76,769.32,400.42,774Z"/><path class="cls-6" d="M436.71,768.22a5.78,5.78,0,0,1-5.77,5.77H400.42c-4.66-4.67-6.09-11.24-3.28-16h26.95a13.25,13.25,0,0,1,12.11,7.88A6.16,6.16,0,0,1,436.71,768.22Z"/><path class="cls-5" d="M422.67,774a6,6,0,0,1-.55.87c-4,5.47-12.69,6-19.44,1.06a20.91,20.91,0,0,1-2.26-1.93c-4.66-4.67-6.09-11.24-3.28-16a6,6,0,0,1,.55-.87c4-5.51,12.65-6,19.4-1.1a20.18,20.18,0,0,1,2.29,2C424,762.68,425.44,769.21,422.67,774Z"/><path class="cls-6" d="M450.82,803.45a5.8,5.8,0,0,1-5.8,5.76H386.13c2.84-4.78,1.42-11.3-3.25-16H438.2a13.23,13.23,0,0,1,12.11,7.91A5.8,5.8,0,0,1,450.82,803.45Z"/><path class="cls-9" d="M386.13,809.21H358.42a13.23,13.23,0,0,1-12.11-7.88,5.9,5.9,0,0,1-.51-2.33,5.75,5.75,0,0,1,5.76-5.76h31.32C387.55,797.91,389,804.43,386.13,809.21Z"/><path class="cls-5" d="M386.13,809.21a3.83,3.83,0,0,1-.51.88c-4,5.5-12.66,6-19.4,1.09a20.3,20.3,0,0,1-2.3-2c-4.63-4.67-6.05-11.19-3.28-16a6.64,6.64,0,0,1,.55-.88c4-5.47,12.69-6,19.43-1.05a19,19,0,0,1,2.26,1.93C387.55,797.91,389,804.43,386.13,809.21Z"/><path class="cls-6" d="M405.75,844.18H370.49a13.27,13.27,0,0,1-12.11-7.88,5.73,5.73,0,0,1,5.29-8.09h38.8C399.69,833,401.12,839.51,405.75,844.18Z"/><path class="cls-9" d="M462.89,838.46a5.75,5.75,0,0,1-5.76,5.72H405.75c-4.63-4.67-6.06-11.19-3.28-16h47.8a13.23,13.23,0,0,1,12.11,7.91A6,6,0,0,1,462.89,838.46Z"/><path class="cls-5" d="M428,844.18a6.64,6.64,0,0,1-.55.88c-4,5.5-12.65,6-19.4,1.09a21.09,21.09,0,0,1-2.29-2c-4.63-4.67-6.06-11.19-3.28-16a5.65,5.65,0,0,1,.54-.88c4-5.47,12.69-5.94,19.44-1.05a19,19,0,0,1,2.26,1.93C429.38,832.88,430.8,839.44,428,844.18Z"/><path class="cls-2" d="M161.61,525.37l.88.25-.33,1.28A16.1,16.1,0,0,1,161.61,525.37Z"/><ellipse class="cls-9" cx="309.75" cy="576.78" rx="24.84" ry="29.77" transform="translate(-149.95 110.63) rotate(-16.36)"/></svg>