<svg id="Layer_2" data-name="Layer 2" xmlns="http://www.w3.org/2000/svg" viewBox="0 0 1000 1000"><defs><style>.cls-1,.cls-5,.cls-6{fill:none;}.cls-1{stroke:#ccdde2;stroke-miterlimit:10;}.cls-1,.cls-5{stroke-width:5.21px;}.cls-2{fill:#d7e8f0;}.cls-3{fill:#3fbdf1;}.cls-4{fill:#2e2e2e;}.cls-5{stroke:#000;stroke-linecap:round;stroke-linejoin:round;}.cls-7{opacity:0.54;}.cls-8{opacity:0.46;}.cls-9{opacity:0.56;}</style></defs><path class="cls-1" d="M725.21,671.77a35.82,35.82,0,0,1-3.64-.62"/><path class="cls-1" d="M235.72,288.51S196,91.84,376.32,53.49A154.61,154.61,0,0,1,408.62,50c34.47,0,66.15,12.73,92.65,38.31,15.35,14.85,25.93,33,37.36,50.44,7.17,11,14.73,21.7,24,31.22,25.62,26.31,60.33,37.5,94.08,50,29.68,10.93,58.6,22.89,79.88,47,27.08,30.64,55,62.93,69.31,101.86A303.19,303.19,0,0,1,819.44,419c7.75,42.5,8.06,85.91-1.34,128.14-10.16,45.71-36.7,88.75-71.6,119.73"/><path class="cls-1" d="M755.5,610.91l-9.79,54.75a6.63,6.63,0,0,1-6.54,5.47H688a6.65,6.65,0,0,1-6.56-5.56l-9-54.66Z"/><path class="cls-1" d="M764.81,604.8h0a6.65,6.65,0,0,1-6.63,6.11H669.9a6.64,6.64,0,0,1-6.61-6h0a6.64,6.64,0,0,1,6.61-7.29h88.28A6.66,6.66,0,0,1,764.81,604.8Z"/><path class="cls-1" d="M716.8,597.61c0-2.8,7.13-37.73,1.22-68.71-3.24-17-10.41-32.79-24.82-41.44"/><path class="cls-1" d="M718,528.9s1.63-23.53,22-25.16"/><path class="cls-1" d="M720.18,564.81A31.84,31.84,0,0,1,740,559.09"/><path class="cls-1" d="M720.18,548.1s-14.77-17.5-38.38-3.66"/><path class="cls-1" d="M709.78,541.06s-33.27-30.4-39.78,10.7c0,0,9.36,6.11,23.2,0S709.78,541.06,709.78,541.06Z"/><path class="cls-1" d="M725.34,510.91s-1.21-13.68,14.66-18.16S764.83,507,764.83,507,752.6,520.52,725.34,510.91Z"/><path class="cls-1" d="M729,559.07s-.54-13.83,17.91-11,21.44,18.59,21.44,18.59-30.23,11.08-39.35-6.16"/><path class="cls-1" d="M706.78,500.25c0,1-13.88-1.24-14.76-1.5-6.72-2-11.49-6.66-14.63-12.82-1-1.91-6.56-12.62-5-14.48C672.41,471.45,705.42,460.83,706.78,500.25Z"/><path class="cls-2" d="M617.73,344.47l-29.3,32.75h-20.1l-30.45,19.45h0a45.71,45.71,0,0,0-35.93,8.74c-13.31,10-54.32,50.54-75.12,55-5-11.93-11.43-23.32-15-28.38l145.5-70L564,344.47l42.19-17Z"/><path class="cls-3" d="M402.32,671.29l-61.17-.46a114.8,114.8,0,0,1-59.33-17,178.35,178.35,0,0,0,37.35-4h0c.85,0,1.73,0,2.61,0,14.34-.61,27-10.32,35.32-22s13.35-25.35,19.48-38.36,13.89-25.85,25.93-33.71c1.15-.76,2.34-1.45,3.53-2.11a465.86,465.86,0,0,1,54.57-.3C444.39,561,387.59,593.44,402.32,671.29Z"/><path class="cls-3" d="M469.82,510.78s-6,18.27,13.05,25.43,17.32-.28,17.3,12.47c0,0,3.84,5.52-4.08,5.7s-39.57-4.78-51.56-3.2-34,.61-12.6-5.68S467.3,528.84,469.82,510.78Z"/><path class="cls-4" d="M357.91,447.47a18.88,18.88,0,0,1,9.35,6c4.46,5,11.75,10.8,12.9,25.88s7.33,19.76,8.69,21.06.36,6-8.56,5.17-34.9-4.9-33.75-35.39C346.54,470.15,345.76,452.73,357.91,447.47Z"/><path class="cls-2" d="M321.47,650.48a178.35,178.35,0,0,1-37.35,4c-.16-.12-.35-.19-.5-.31a190.78,190.78,0,0,1-31.22-3.37c-41.23-7.87-149.57-181.41-57.53-235.1,0,0,2.8-.85,7.63-2,5.26,6.67,12.58,11.88,22.17,15.07a49.38,49.38,0,0,0-9.43,11.12c-7.18,11.51-8.94,25.62-8.48,39.2.92,28.76,10.89,56.53,23.74,82.3,14.65,29.42,33.75,57.49,60.44,76.67C300,644.5,310.42,650.1,321.47,650.48Z"/><path class="cls-4" d="M251.78,277.35s-.5,2.42,5.78,2.87,32.93,1.66,35.81,31-12.56,66.3-3.52,68.52,28.66,7.4,34.46,3.8,38-24.25,74.14-10.28c0,0,5.7,5.58,5.84-10.2s2.21-41.32-8.66-37.82-18-2.41-21.15,11.42-30.92,1.83-30.92,1.83S326.08,324,316.61,296,283,268.5,275.14,269.63,251.78,277.35,251.78,277.35Z"/><path class="cls-5" d="M664.93,890c-6.83-3.72-6.68-9-10.55-13.65l-5.63,11.91A14.6,14.6,0,0,0,655,903.06l53.6,45.11a10.65,10.65,0,0,0,16.6-8.82,10.27,10.27,0,0,0-.57-3.42L618.2,619.64a70.08,70.08,0,0,0-35.36-40.5C553,564.34,493,545.61,411.45,552.74"/><path class="cls-5" d="M654.38,876.38c-37.55-51.32-92-136.46-102.49-169.22-11-34.13-41.84-35.47-71.64-34.74l-136.8-1a114.77,114.77,0,0,1-59.83-17.26"/><path class="cls-5" d="M577.13,576.42c-.23-28.76-.08-87,.07-133,.12-38.81-44.29-61.44-75.28-38-13.46,10.12-28.38,20.52-44.53,38.08"/><path class="cls-5" d="M505.18,508.69S497,531.63,501,555.06"/><path class="cls-5" d="M387.7,371.47h-.11c-30.14-5.45-52,3.33-66.92,14.69"/><path class="cls-5" d="M202.5,413.66c-4.83,1.18-7.63,2-7.63,2-92,53.69,16.3,227.23,57.53,235.1a190.78,190.78,0,0,0,31.22,3.37c24.58.69,40.69-3.57,40.69-3.57"/><polygon class="cls-5" points="267.74 461.71 324.31 580.6 336.53 564.3 285.12 461.71 267.74 461.71"/><polyline class="cls-5" points="297.73 486.87 350.46 461.52 350.46 461.48 367.26 453.43"/><polyline class="cls-5" points="537.85 396.67 568.34 377.22 588.44 377.22 617.74 344.47 606.2 327.48 564.01 344.47 557.3 362 411.79 432.03"/><line class="cls-5" x1="429.2" y1="462.36" x2="457.39" y2="443.49"/><polyline class="cls-5" points="383.33 493.04 367.92 503.36 321.55 534.39"/><path class="cls-5" d="M433.61,402.11c-.73-23.2-10.28-46.52-19.67-67.42A119.59,119.59,0,0,0,408.49,324"/><path class="cls-5" d="M367.92,285.83c8.09,23.55,19.25,67.65-14.85,57-46-14.38-22.05-84.87-85.33-72.14a1.83,1.83,0,0,1-.42.07.14.14,0,0,0-.08,0h-.08"/><path class="cls-5" d="M246.57,281.07c24.81-3.87,66.5,1.88,38.54,96.11v0"/><path class="cls-5" d="M402.85,375.11a121,121,0,0,0-1.76-49.86"/><path class="cls-5" d="M499.88,539.1s-33.82-.68-32.14-20.24"/><path class="cls-5" d="M467.17,552.17s-79.7,29.11-62.54,119.7"/><path class="cls-5" d="M357.91,447.47a25,25,0,0,0-9.82,13.2v0a36.07,36.07,0,0,0,17.45,41.85c6.79,3.45,14.39,4.06,21.21,1.07a18.86,18.86,0,0,0,3.45-2"/><path class="cls-5" d="M457.38,443.49A198.39,198.39,0,0,1,467,471.64a6.39,6.39,0,0,1,.27,1c.39,1.5.73,3,1.08,4.56.38,1.81.76,3.57,1.11,5.37.08.58.19,1.15.27,1.73a1,1,0,0,1,0,.31c.07.42.15.84.23,1.3.07.73.19,1.5.34,2.3a.63.63,0,0,0,0,.27"/><path class="cls-5" d="M343.55,392c12-11.46,27.81-20.74,44-20.55h.11c1.27,0,2.61.07,3.88.23,10.81,1.15,20,8.32,27.76,15.91a167.12,167.12,0,0,1,23.9,29.31"/><path class="cls-5" d="M469.78,484.3a1,1,0,0,1,0,.31c.07.42.15.84.23,1.3,1.61,12.77,1.53,24.55-3.95,36.36-4.64,10-15,16.3-24.93,20.09-12.16,4.65-25.43,6.91-36.32,14-12,7.86-19.79,20.71-25.93,33.71s-11.12,26.66-19.48,38.36-21,21.4-35.32,22c-12,.46-23.4-5.45-33.18-12.46-26.69-19.18-45.79-47.25-60.44-76.67-12.85-25.77-22.82-53.54-23.74-82.3-.46-13.58,1.3-27.69,8.48-39.2a49.38,49.38,0,0,1,9.43-11.12"/><line class="cls-5" x1="404.63" y1="671.87" x2="161.31" y2="671.87"/><line class="cls-5" x1="781.66" y1="671.87" x2="635.92" y2="671.87"/><path class="cls-3" d="M460.53,219.86v59.46a29.12,29.12,0,0,1-18.06,27c-14.23,5.8-33.07,12.32-64.22,13.43V277.35c8.46,3.39,18.22,1.23,25-4.88,1.45-1.3,2.87-2.56,4.2-3.67,5.21-4.51,9.44-7.42,11.57-6.61,4.42,1.63,5,1.63,7.72-12.69,2-10.31,18.68-21.71,22.7-40.66a40.09,40.09,0,0,0,.68-12,51.93,51.93,0,0,0-3.49-14.33,71.77,71.77,0,0,0-11-19l8.65,8.86c.8.84,1.57,1.67,2.28,2.54C457.17,187.29,460.53,203.25,460.53,219.86Z"/><path class="cls-3" d="M449.85,206.52c-.1.8-.25,1.58-.4,2.32-1.92-.13-7.41.64-13.71,4.29a0,0,0,0,0,0,0A40.4,40.4,0,0,0,424.28,223c-4.81,6-27.91,32.17-47.08,53.81h0l-7.1,8a10.78,10.78,0,0,1-16.5-.44l-47.17-59.1a19.67,19.67,0,0,1,2.32-26.86l42.55-38L353,159c.83-.61,1.66-1.2,2.48-1.77,26.59-16.82,52.74-15.06,72-2.09l8.18,8.39a71.77,71.77,0,0,1,11,19C450.25,191.7,450.9,199.6,449.85,206.52Z"/><path class="cls-3" d="M435.64,163.54l-8.18-8.39-.46-.47a.64.64,0,0,1,.19.13l.77.68a64,64,0,0,1,7.47,7.78C435.49,163.36,435.58,163.45,435.64,163.54Z"/><path class="cls-6" d="M378.25,277.35a11.28,11.28,0,0,1-1.05-.5"/><path class="cls-3" d="M433,159.31a.59.59,0,0,1,.19.13,64.68,64.68,0,0,1,8.24,8.46c.06.09.16.18.22.27Z"/><path class="cls-5" d="M357.13,299.48c5-5.65,12.23-13.77,20-22.63h0C396.37,255.21,419.47,229,424.28,223c10-12.35,22.11-14.39,25.17-14.2"/><path class="cls-5" d="M377.17,276.85h0a11.28,11.28,0,0,0,1.05.5c8.46,3.39,18.22,1.23,25-4.88,7.13-6.42,13.09-11.3,15.77-10.28,4.42,1.63,5,1.63,7.72-12.69,2-10.31,18.68-21.71,22.7-40.66,1.57-7.48,1.2-16.12-2.81-26.31a72,72,0,0,0-11-19c-.07-.09-.16-.18-.22-.27a64.68,64.68,0,0,0-8.24-8.46.64.64,0,0,0-.19-.13c-21.06-17.87-52.67-21.08-84.1,2.5-.56.44-1.11.9-1.64,1.36l-42.54,38a19.63,19.63,0,0,0-2.32,26.83l60.73,76.07"/><path class="cls-5" d="M421.74,226.62s4.24-.63,8.49,3.23"/><ellipse cx="418.9" cy="234.8" rx="4.61" ry="2.89" transform="translate(-32.07 399.83) rotate(-49.37)"/><path class="cls-5" d="M427,154.68l8.65,8.86,8.64,8.86c12.38,12.69,16.24,29.71,16.24,47.46v66.93a29.12,29.12,0,0,1-18.06,27c-14.23,5.8-33.07,12.32-64.22,13.43V277.35"/><path class="cls-5" d="M407.44,268.79s-6.93,2.33-9-6.93"/><path class="cls-5" d="M321.75,255.17h0l-8.46,10.22a7.05,7.05,0,0,1-6.16,2.5c-5.78-.56-11.57-.82-17.34-.82-87.25,0-144.55,158.05-47.94,164.92,94.69,6.71,132.32,2.57,139,51.77,1.57,11.59,8.59,23,21.74,18.57,16.38-5.49,26.77-25.28,24.17-41.92-2.65-16.92-15.42-31.07-28.35-41.35-25.42-20.13-56.53-28.68-87.75-35-10.12-2-42.3-4.68-32.1-22.06"/><path class="cls-2" d="M416.06,530.16h-2.74v-3.4h2.74a3.5,3.5,0,0,0,3.5-3.5V499.93l24.56-10.52v26a7,7,0,0,1-7,7h-3.21V519h3.21a3.59,3.59,0,0,0,3.59-3.59V494.56L423,502.18v21.08A6.91,6.91,0,0,1,416.06,530.16Z"/><circle class="cls-2" cx="411.53" cy="528.46" r="3.69"/><circle class="cls-2" cx="434.01" cy="521.09" r="3.69"/><g class="cls-7"><path class="cls-3" d="M641.1,320.66l-4.25,1.78-2.22-5.29,4.26-1.78a5.9,5.9,0,0,0,3.16-7.72L625.9,269.08l4.38.07c.74,0,18.22.47,29.1,15l-4.59,3.44c-6.06-8.07-14.73-11-20-12.06l12.54,30A11.64,11.64,0,0,1,641.1,320.66Z"/><circle class="cls-3" cx="632.95" cy="320.97" r="6.21"/></g><g class="cls-8"><path class="cls-3" d="M498,355.87h-4.63v-5.75H498a5.93,5.93,0,0,0,5.92-5.92V304.75L545.45,287v44a11.84,11.84,0,0,1-11.83,11.82h-5.43V337h5.43a6.07,6.07,0,0,0,6.07-6.07V295.67l-30,12.88V344.2A11.68,11.68,0,0,1,498,355.87Z"/><circle class="cls-3" cx="490.32" cy="352.99" r="6.23"/><circle class="cls-3" cx="528.35" cy="340.53" r="6.23"/></g><path class="cls-3" d="M682.23,402.14l-1.9,2.24L677.55,402l1.9-2.24a3.75,3.75,0,0,0-.43-5.29l-19.08-16.2,8.45-27.41,21.27,18.06a7.52,7.52,0,0,1,.87,10.58l-2.24,2.63-2.78-2.37,2.23-2.62a3.85,3.85,0,0,0-.44-5.43l-17-14.48-6.11,19.81,17.24,14.64A7.41,7.41,0,0,1,682.23,402.14Z"/><circle class="cls-3" cx="677.69" cy="404.67" r="3.95"/><circle class="cls-3" cx="687.28" cy="381.15" r="3.95"/><path class="cls-3" d="M756.43,459.61l-5.55-1.86,2.32-6.91,5.55,1.87a7.49,7.49,0,0,0,9.49-4.71l15.92-47.32,57-4.59-17.75,52.77a15,15,0,0,1-19,9.41L798,456.08l2.32-6.91,6.52,2.2a7.71,7.71,0,0,0,9.74-4.83l14.23-42.3-41.24,3.32-14.39,42.77A14.79,14.79,0,0,1,756.43,459.61Z"/><circle class="cls-3" cx="748.39" cy="453.07" r="7.89"/><circle class="cls-3" cx="799.05" cy="453.47" r="7.89"/><path class="cls-3" d="M625.27,467l-3.08-1.7,2.11-3.83,3.08,1.7a4.5,4.5,0,0,0,6.11-1.76l15.4-27.91,2,2.66c.34.45,8.34,11.11,4.84,24.46l-4.23-1.12a25.14,25.14,0,0,0-2.26-17.65l-12,21.67A8.88,8.88,0,0,1,625.27,467Z"/><circle class="cls-3" cx="621.23" cy="462.26" r="4.74"/><g class="cls-9"><path class="cls-3" d="M541.77,487.73l-4.19,2L534.41,483a16.49,16.49,0,0,1-6.51,2,11.54,11.54,0,0,1-10.09-4.38c-2.11-2.58-3.44-6-4.06-10.5-1.22-8.78.54-17.47,2.86-24.9L514,439.64c-.76-1.6-2-4.28-1-7a6,6,0,0,1,9.64-2c3,3.18,1.27,7.87.52,9.87-.51,1.39-1,2.86-1.54,4.39l7.21,15.32c4-2.81,9.58-1.92,13.05,2.06,3.18,3.64,3.35,8.66.46,13.42a19.64,19.64,0,0,1-4,4.67Zm-22.14-36.12a48.19,48.19,0,0,0-1.29,17.85c.5,3.61,1.5,6.29,3.06,8.19a7,7,0,0,0,6.17,2.69,12.23,12.23,0,0,0,4.87-1.54l-4.08-8.67c-.08.42-.15.86-.2,1.31l-4.61-.54a20.45,20.45,0,0,1,2-6.8Zm11.21,12.91L536.22,476a14.26,14.26,0,0,0,2.12-2.69c.86-1.41,2.59-5,0-8-1.63-1.86-4.57-3-6.9-1.3A4.27,4.27,0,0,0,530.84,464.52Zm-13-30.78a.89.89,0,0,0-.5.47c-.31.84.28,2.22.86,3.45l.58,1.24,0,0c.63-1.71,1.37-4.1.46-5.06a1.16,1.16,0,0,0-1-.2A1.55,1.55,0,0,0,517.83,433.74Z"/></g><path class="cls-3" d="M729.19,363.14l-5-3.65,5.83-8a22,22,0,0,1-6.45-6.36,15.37,15.37,0,0,1-1.31-14.58c1.67-4.11,4.84-7.85,9.68-11.43,9.49-7,20.77-10.49,30.93-12.52l4.82-6.58c1.4-1.91,3.73-5.09,7.54-5.67a7.94,7.94,0,0,1,8.5,10c-1.79,5.54-8.39,6.49-11.2,6.9-2,.28-4,.6-6.11,1l-13.32,18.19c5.82,2.88,8.35,10,5.91,16.56-2.24,6-8,9.44-15.41,9.08a26.27,26.27,0,0,1-8-1.71Zm28.12-48.88c-7.47,2-15.12,5-21.68,9.86-3.9,2.88-6.39,5.75-7.62,8.79a9.26,9.26,0,0,0,.78,8.92,16.11,16.11,0,0,0,4.89,4.71l7.54-10.29q-.81.27-1.65.6l-2.3-5.73a27.14,27.14,0,0,1,9.19-2Zm-7.95,21.32-9.93,13.57a20,20,0,0,0,4.49.77c2.2.1,7.51-.18,9.32-5.06,1.14-3.08.55-7.22-2.88-8.9A6.92,6.92,0,0,0,749.36,335.58Zm27.7-34.81a1.3,1.3,0,0,0-.87-.29c-1.18.18-2.42,1.75-3.49,3.21l-1.07,1.47h0c2.4-.34,5.66-1,6.21-2.68a1.58,1.58,0,0,0-.44-1.34A2.55,2.55,0,0,0,777.06,300.77Z"/></svg>